# Blender 3.3.4
# www.blender.org
mtllib MG_TrajectoryRootMarker.mtl
o RootMarker
v 0.691034 0.000000 0.000000
v -0.308966 0.000000 0.000000
v -0.002598 0.000000 -0.300186
v -0.002598 0.000000 0.300186
v -0.002598 0.000000 0.000000
v -0.002598 0.115126 0.000000
vn -0.3311 0.8810 0.3379
vn -0.0000 -1.0000 -0.0000
vn -0.3311 0.8810 -0.3379
vn 0.1531 0.9227 -0.3539
vn 0.1531 0.9227 0.3539
vt 0.375000 0.750000
vt 0.375000 0.625000
vt 0.625000 0.500000
vt 0.625000 0.625000
vt 0.875000 0.750000
vt 0.875000 0.625000
vt 0.125000 0.500000
vt 0.125000 0.625000
vt 0.798408 0.500000
vt 0.201592 0.500000
vt 0.201592 0.750000
vt 0.798408 0.750000
vt 0.201592 0.625000
vt 0.798408 0.625000
s 0
usemtl Red
f 6/14/1 2/5/1 4/12/1
f 5/13/2 1/1/2 4/11/2
f 3/10/2 1/2/2 5/13/2
f 3/9/3 2/6/3 6/14/3
f 1/3/4 3/9/4 6/14/4
f 2/7/2 3/10/2 5/13/2
f 2/8/2 5/13/2 4/11/2
f 1/4/5 6/14/5 4/12/5
